<svg width="63" height="51" viewBox="0 0 63 51" fill="none" xmlns="http://www.w3.org/2000/svg">
<path d="M35.1249 50V42.0977L37.232 41.6779L37.2323 41.6778C41.6174 40.8014 44.7606 39.0445 46.4503 36.3803L46.4503 36.3803L46.4534 36.3754C47.3113 34.9871 47.7985 33.4018 47.8682 31.7713L47.8905 31.25H47.3686H37.7499C37.0537 31.25 36.386 30.9734 35.8937 30.4812C35.4015 29.9889 35.1249 29.3212 35.1249 28.625V6.75C35.1249 3.57927 37.7042 1 40.8749 1H59.6249C60.3211 1 60.9888 1.27656 61.4811 1.76885C61.9733 2.26113 62.2499 2.9288 62.2499 3.625V28.625V28.6745L62.2549 28.6996C62.256 28.7137 62.2576 28.7355 62.2593 28.7647C62.2629 28.8259 62.2671 28.9168 62.2703 29.0348C62.2765 29.2708 62.2782 29.6138 62.2617 30.0442C62.2288 30.9056 62.123 32.1141 61.8362 33.5162C61.2622 36.3224 59.9672 39.8845 57.0978 42.9987C52.8375 47.6171 46.3573 50 37.7499 50H35.1249ZM0.728027 50V42.0977L2.83511 41.6779L2.83539 41.6778C7.22053 40.8014 10.3638 39.0445 12.0534 36.3803L12.0534 36.3803L12.0565 36.3754C12.9145 34.9871 13.4016 33.4018 13.4713 31.7713L13.4936 31.25H12.9718H3.35303C2.65683 31.25 1.98916 30.9734 1.49687 30.4812C1.00459 29.9889 0.728027 29.3212 0.728027 28.625V6.75C0.728027 3.57927 3.30729 1 6.47803 1H25.228C25.9242 1 26.5919 1.27656 27.0842 1.76884C27.5765 2.26113 27.853 2.92881 27.853 3.625V28.625V28.6745L27.8581 28.6996C27.8586 28.7067 27.8593 28.7157 27.86 28.7265C27.8608 28.7374 27.8616 28.7502 27.8625 28.7649C27.8661 28.8261 27.8704 28.9169 27.8735 29.035C27.8798 29.271 27.8817 29.6139 27.8653 30.0444C27.8326 30.9057 27.7271 32.1142 27.4405 33.5163C26.8669 36.3224 25.5719 39.8844 22.701 42.9986C18.4407 47.6171 11.9605 50 3.35303 50H0.728027ZM27.8566 28.6833C27.8564 28.6817 27.8565 28.6824 27.8569 28.6862L27.8566 28.6833Z" stroke="#9747FF" stroke-opacity="0.5"/>
</svg>
