<svg width="24" height="24" viewBox="0 0 24 24" fill="none" xmlns="http://www.w3.org/2000/svg">
<path d="M16.9126 5.98313C16.6943 5.98313 16.4808 6.04788 16.2993 6.16918C16.1177 6.29049 15.9762 6.46291 15.8926 6.66464C15.8091 6.86637 15.7872 7.08835 15.8298 7.30251C15.8724 7.51666 15.9776 7.71338 16.132 7.86777C16.2864 8.02217 16.4831 8.12732 16.6972 8.16991C16.9114 8.21251 17.1334 8.19065 17.3351 8.10709C17.5368 8.02353 17.7092 7.88203 17.8305 7.70048C17.9519 7.51893 18.0166 7.30548 18.0166 7.08713C18.0166 6.79433 17.9003 6.51352 17.6933 6.30648C17.4862 6.09944 17.2054 5.98313 16.9126 5.98313ZM21.1446 8.20953C21.1267 7.4462 20.9837 6.69098 20.7214 5.97393C20.4875 5.36041 20.1234 4.80486 19.6542 4.34553C19.1986 3.87396 18.6418 3.51217 18.0258 3.28753C17.3106 3.01719 16.5546 2.87096 15.7902 2.85513C14.815 2.79993 14.5022 2.79993 11.9998 2.79993C9.49741 2.79993 9.18461 2.79993 8.20941 2.85513C7.44503 2.87096 6.68896 3.01719 5.9738 3.28753C5.35895 3.51444 4.80258 3.87592 4.3454 4.34553C3.87384 4.80109 3.51205 5.35793 3.2874 5.97393C3.01707 6.68908 2.87084 7.44515 2.855 8.20953C2.7998 9.18473 2.7998 9.49753 2.7998 11.9999C2.7998 14.5023 2.7998 14.8151 2.855 15.7903C2.87084 16.5547 3.01707 17.3108 3.2874 18.0259C3.51205 18.6419 3.87384 19.1988 4.3454 19.6543C4.80258 20.1239 5.35895 20.4854 5.9738 20.7123C6.68896 20.9827 7.44503 21.1289 8.20941 21.1447C9.18461 21.1999 9.49741 21.1999 11.9998 21.1999C14.5022 21.1999 14.815 21.1999 15.7902 21.1447C16.5546 21.1289 17.3106 20.9827 18.0258 20.7123C18.6418 20.4877 19.1986 20.1259 19.6542 19.6543C20.1255 19.1967 20.4899 18.6407 20.7214 18.0259C20.9837 17.3089 21.1267 16.5537 21.1446 15.7903C21.1446 14.8151 21.1998 14.5023 21.1998 11.9999C21.1998 9.49753 21.1998 9.18473 21.1446 8.20953ZM19.4886 15.6799C19.4819 16.2639 19.3761 16.8425 19.1758 17.3911C19.0289 17.7915 18.793 18.1533 18.4858 18.4491C18.1874 18.7532 17.8264 18.9886 17.4278 19.1391C16.8792 19.3395 16.3006 19.4452 15.7166 19.4519C14.7966 19.4979 14.4562 19.5071 12.0366 19.5071C9.61701 19.5071 9.27661 19.5071 8.35661 19.4519C7.75022 19.4633 7.14643 19.3699 6.57181 19.1759C6.19072 19.0178 5.84625 18.7829 5.5598 18.4859C5.25445 18.1904 5.02146 17.8283 4.879 17.4279C4.65439 16.8715 4.52981 16.2797 4.511 15.6799C4.511 14.7599 4.4558 14.4195 4.4558 11.9999C4.4558 9.58033 4.4558 9.23993 4.511 8.31993C4.51513 7.7229 4.62412 7.13124 4.833 6.57193C4.99497 6.18361 5.24357 5.83745 5.5598 5.55993C5.83931 5.2436 6.18475 4.99238 6.57181 4.82393C7.13259 4.62157 7.72364 4.5158 8.31981 4.51113C9.23981 4.51113 9.5802 4.45593 11.9998 4.45593C14.4194 4.45593 14.7598 4.45593 15.6798 4.51113C16.2638 4.51783 16.8424 4.62359 17.391 4.82393C17.8091 4.97909 18.1843 5.23135 18.4858 5.55993C18.7873 5.84253 19.0229 6.18804 19.1758 6.57193C19.3803 7.13215 19.4861 7.72356 19.4886 8.31993C19.5346 9.23993 19.5438 9.58033 19.5438 11.9999C19.5438 14.4195 19.5346 14.7599 19.4886 15.6799ZM11.9998 7.28033C11.0668 7.28215 10.1552 7.56049 9.38025 8.08019C8.60532 8.59989 8.00183 9.33763 7.64603 10.2002C7.29022 11.0627 7.19807 12.0114 7.38122 12.9263C7.56436 13.8412 8.01458 14.6813 8.67499 15.3404C9.33541 15.9996 10.1764 16.4481 11.0916 16.6295C12.0069 16.8109 12.9554 16.7169 13.8172 16.3594C14.6791 16.0019 15.4157 15.397 15.9338 14.621C16.452 13.8451 16.7286 12.933 16.7286 11.9999C16.7298 11.379 16.6083 10.764 16.3709 10.1902C16.1336 9.61649 15.7852 9.09531 15.3457 8.65669C14.9063 8.21808 14.3844 7.87067 13.8102 7.63446C13.236 7.39825 12.6207 7.2779 11.9998 7.28033ZM11.9998 15.0635C11.3939 15.0635 10.8016 14.8839 10.2978 14.5472C9.79395 14.2106 9.40128 13.7321 9.16941 13.1723C8.93753 12.6125 8.87686 11.9965 8.99507 11.4022C9.11328 10.808 9.40506 10.2621 9.83351 9.83363C10.262 9.40518 10.8078 9.1134 11.4021 8.99519C11.9964 8.87698 12.6124 8.93765 13.1722 9.16953C13.732 9.40141 14.2105 9.79408 14.5471 10.2979C14.8837 10.8017 15.0634 11.394 15.0634 11.9999C15.0634 12.4022 14.9842 12.8006 14.8302 13.1723C14.6762 13.544 14.4506 13.8817 14.1661 14.1662C13.8816 14.4507 13.5439 14.6764 13.1722 14.8303C12.8005 14.9843 12.4021 15.0635 11.9998 15.0635Z" fill="white"/>
</svg>
