<svg width="22" height="22" viewBox="0 0 22 22" fill="none" xmlns="http://www.w3.org/2000/svg">
<path d="M13.0759 14.6095L11.5017 13.0484C10.7781 12.3309 10.4163 11.9721 9.99982 11.8375C9.6334 11.7192 9.23901 11.7192 8.8726 11.8375C8.45608 11.9721 8.0943 12.3309 7.37073 13.0484L3.70508 16.7403M13.0759 14.6095L13.3889 14.2992C14.1276 13.5666 14.497 13.2003 14.9208 13.0666C15.2935 12.949 15.6941 12.9536 16.064 13.0797C16.4846 13.2232 16.8455 13.5979 17.5672 14.3472L18.3333 15.1251M13.0759 14.6095L16.7016 18.2992M6.60081 3.66705H15.4008C16.4276 3.66705 16.941 3.66705 17.3331 3.86687C17.6781 4.04264 17.9586 4.32311 18.1343 4.66807C18.3341 5.06024 18.3341 5.57362 18.3341 6.60039V15.4004C18.3341 16.4271 18.3341 16.9405 18.1343 17.3327C17.9586 17.6777 17.6781 17.9581 17.3331 18.1339C16.941 18.3337 16.4276 18.3337 15.4008 18.3337H6.60081C5.57405 18.3337 5.06067 18.3337 4.6685 18.1339C4.32353 17.9581 4.04307 17.6777 3.8673 17.3327C3.66748 16.9405 3.66748 16.4271 3.66748 15.4004V6.60039C3.66748 5.57362 3.66748 5.06024 3.8673 4.66807C4.04307 4.32311 4.32353 4.04264 4.6685 3.86687C5.06067 3.66705 5.57405 3.66705 6.60081 3.66705ZM15.5841 8.25039C15.5841 9.26291 14.7633 10.0837 13.7508 10.0837C12.7383 10.0837 11.9175 9.26291 11.9175 8.25039C11.9175 7.23786 12.7383 6.41705 13.7508 6.41705C14.7633 6.41705 15.5841 7.23786 15.5841 8.25039Z" stroke="#9747FF" stroke-linecap="round" stroke-linejoin="round"/>
</svg>
